<svg width="117" height="46" viewBox="0 0 117 46" fill="none" xmlns="http://www.w3.org/2000/svg">
<path d="M1.87145 30V13.0909H6.56108V30H1.87145ZM4.22727 10.9112C3.53007 10.9112 2.93194 10.68 2.43288 10.2177C1.94117 9.74799 1.69531 9.18655 1.69531 8.53338C1.69531 7.88755 1.94117 7.33345 2.43288 6.87109C2.93194 6.4014 3.53007 6.16655 4.22727 6.16655C4.92448 6.16655 5.51894 6.4014 6.01065 6.87109C6.50971 7.33345 6.75923 7.88755 6.75923 8.53338C6.75923 9.18655 6.50971 9.74799 6.01065 10.2177C5.51894 10.68 4.92448 10.9112 4.22727 10.9112ZM10.4058 30V7.45454H19.3007C21.0107 7.45454 22.4675 7.78113 23.6711 8.4343C24.8747 9.08014 25.7921 9.97917 26.4232 11.1314C27.0617 12.2763 27.3809 13.5973 27.3809 15.0945C27.3809 16.5916 27.058 17.9126 26.4122 19.0575C25.7664 20.2024 24.8306 21.0941 23.605 21.7326C22.3867 22.3711 20.9116 22.6903 19.1796 22.6903H13.5102V18.8704H18.409C19.3264 18.8704 20.0823 18.7126 20.6768 18.397C21.2786 18.0741 21.7262 17.6301 22.0198 17.065C22.3207 16.4925 22.4711 15.8357 22.4711 15.0945C22.4711 14.3459 22.3207 13.6927 22.0198 13.1349C21.7262 12.5698 21.2786 12.1332 20.6768 11.8249C20.075 11.5094 19.3117 11.3516 18.387 11.3516H15.1725V30H10.4058ZM30.389 30V13.0909H35.0787V30H30.389ZM32.7449 10.9112C32.0476 10.9112 31.4495 10.68 30.9505 10.2177C30.4587 9.74799 30.2129 9.18655 30.2129 8.53338C30.2129 7.88755 30.4587 7.33345 30.9505 6.87109C31.4495 6.4014 32.0476 6.16655 32.7449 6.16655C33.4421 6.16655 34.0365 6.4014 34.5282 6.87109C35.0273 7.33345 35.2768 7.88755 35.2768 8.53338C35.2768 9.18655 35.0273 9.74799 34.5282 10.2177C34.0365 10.68 33.4421 10.9112 32.7449 10.9112ZM43.5249 20.2244V30H38.8353V13.0909H43.3048V16.0742H43.5029C43.8772 15.0908 44.5047 14.3129 45.3854 13.7404C46.2661 13.1606 47.3339 12.8707 48.5889 12.8707C49.7631 12.8707 50.7869 13.1276 51.6602 13.6413C52.5336 14.1551 53.2124 14.889 53.6968 15.843C54.1812 16.7898 54.4234 17.92 54.4234 19.2337V30H49.7338V20.0703C49.7411 19.0355 49.4769 18.2282 48.9411 17.6484C48.4054 17.0613 47.6678 16.7678 46.7284 16.7678C46.0973 16.7678 45.5395 16.9035 45.0551 17.1751C44.5781 17.4466 44.2038 17.8429 43.9323 18.364C43.6681 18.8777 43.5323 19.4979 43.5249 20.2244ZM65.7374 36.6932C64.2182 36.6932 62.9155 36.484 61.8294 36.0657C60.7505 35.6547 59.8919 35.0933 59.2534 34.3814C58.6149 33.6695 58.2002 32.8696 58.0094 31.9815L62.3468 31.3981C62.4789 31.7357 62.688 32.0513 62.9743 32.3448C63.2605 32.6384 63.6384 32.8732 64.1081 33.0494C64.5852 33.2328 65.165 33.3246 65.8475 33.3246C66.8676 33.3246 67.7079 33.075 68.3684 32.576C69.0363 32.0843 69.3702 31.2586 69.3702 30.0991V27.0057H69.1721C68.9666 27.4754 68.6583 27.9194 68.2473 28.3377C67.8364 28.756 67.3079 29.0973 66.6621 29.3615C66.0163 29.6257 65.2457 29.7578 64.3503 29.7578C63.0807 29.7578 61.9248 29.4643 60.8826 28.8771C59.8478 28.2827 59.0222 27.3763 58.4057 26.158C57.7966 24.9324 57.492 23.3839 57.492 21.5124C57.492 19.5969 57.8039 17.997 58.4277 16.7127C59.0516 15.4284 59.8809 14.467 60.9157 13.8285C61.9578 13.19 63.099 12.8707 64.3393 12.8707C65.286 12.8707 66.0787 13.0322 66.7172 13.3551C67.3556 13.6707 67.8694 14.067 68.2583 14.544C68.6547 15.0137 68.9592 15.4761 69.1721 15.9311H69.3482V13.0909H74.0048V30.1651C74.0048 31.6036 73.6525 32.8072 72.948 33.7759C72.2434 34.7447 71.2673 35.4712 70.0197 35.9556C68.7794 36.4473 67.352 36.6932 65.7374 36.6932ZM65.8365 26.2351C66.5924 26.2351 67.2309 26.0479 67.752 25.6737C68.2804 25.292 68.684 24.7489 68.9629 24.0444C69.2491 23.3325 69.3922 22.4812 69.3922 21.4904C69.3922 20.4996 69.2528 19.641 68.9739 18.9144C68.695 18.1805 68.2914 17.6117 67.763 17.2081C67.2346 16.8045 66.5924 16.6026 65.8365 16.6026C65.0659 16.6026 64.4164 16.8118 63.888 17.2301C63.3596 17.6411 62.9596 18.2135 62.688 18.9474C62.4165 19.6813 62.2807 20.529 62.2807 21.4904C62.2807 22.4665 62.4165 23.3105 62.688 24.0224C62.9669 24.7269 63.3669 25.2737 63.888 25.6626C64.4164 26.0443 65.0659 26.2351 65.8365 26.2351ZM86.0261 30.3082C84.3822 30.3082 82.918 30.0257 81.6337 29.4606C80.3567 28.8881 79.3476 28.1029 78.6064 27.1048C77.8725 26.0993 77.4945 24.9397 77.4725 23.6261H82.2722C82.3016 24.1765 82.4814 24.6609 82.8116 25.0792C83.1492 25.4902 83.5969 25.8094 84.1547 26.0369C84.7124 26.2644 85.3399 26.3782 86.0371 26.3782C86.7637 26.3782 87.4058 26.2498 87.9636 25.9929C88.5214 25.736 88.958 25.3801 89.2736 24.9251C89.5892 24.4701 89.747 23.9453 89.747 23.3509C89.747 22.7491 89.5782 22.217 89.2406 21.7546C88.9103 21.2849 88.4333 20.918 87.8095 20.6538C87.193 20.3896 86.4591 20.2575 85.6078 20.2575H83.5051V16.7567H85.6078C86.327 16.7567 86.9618 16.632 87.5123 16.3825C88.07 16.1329 88.503 15.788 88.8113 15.3477C89.1195 14.9 89.2736 14.3789 89.2736 13.7844C89.2736 13.2193 89.1378 12.724 88.8663 12.2983C88.6021 11.8653 88.2278 11.5277 87.7434 11.2855C87.2664 11.0433 86.7086 10.9222 86.0701 10.9222C85.4243 10.9222 84.8335 11.0397 84.2978 11.2745C83.762 11.502 83.3327 11.8286 83.0098 12.2543C82.6868 12.6799 82.5144 13.179 82.4924 13.7514H77.9238C77.9458 12.4524 78.3165 11.3075 79.0357 10.3168C79.7549 9.32599 80.7237 8.55173 81.9419 7.99396C83.1676 7.42886 84.551 7.14631 86.0922 7.14631C87.648 7.14631 89.0094 7.42886 90.1763 7.99396C91.3432 8.55907 92.2496 9.32232 92.8954 10.2837C93.5486 11.2378 93.8715 12.3093 93.8642 13.4982C93.8715 14.7605 93.4789 15.8137 92.6863 16.6577C91.901 17.5017 90.8772 18.0374 89.6149 18.2649V18.4411C91.2735 18.6539 92.5358 19.23 93.4018 20.1694C94.2752 21.1014 94.7082 22.2683 94.7008 23.6701C94.7082 24.9544 94.3375 26.0956 93.589 27.0938C92.8477 28.0919 91.8239 28.8771 90.5176 29.4496C89.2112 30.022 87.7141 30.3082 86.0261 30.3082ZM106.461 30.3082C104.817 30.3082 103.353 30.0257 102.068 29.4606C100.791 28.8881 99.7822 28.1029 99.0409 27.1048C98.307 26.0993 97.9291 24.9397 97.907 23.6261H102.707C102.736 24.1765 102.916 24.6609 103.246 25.0792C103.584 25.4902 104.031 25.8094 104.589 26.0369C105.147 26.2644 105.774 26.3782 106.472 26.3782C107.198 26.3782 107.84 26.2498 108.398 25.9929C108.956 25.736 109.393 25.3801 109.708 24.9251C110.024 24.4701 110.182 23.9453 110.182 23.3509C110.182 22.7491 110.013 22.217 109.675 21.7546C109.345 21.2849 108.868 20.918 108.244 20.6538C107.628 20.3896 106.894 20.2575 106.042 20.2575H103.94V16.7567H106.042C106.762 16.7567 107.396 16.632 107.947 16.3825C108.505 16.1329 108.938 15.788 109.246 15.3477C109.554 14.9 109.708 14.3789 109.708 13.7844C109.708 13.2193 109.572 12.724 109.301 12.2983C109.037 11.8653 108.662 11.5277 108.178 11.2855C107.701 11.0433 107.143 10.9222 106.505 10.9222C105.859 10.9222 105.268 11.0397 104.732 11.2745C104.197 11.502 103.767 11.8286 103.444 12.2543C103.121 12.6799 102.949 13.179 102.927 13.7514H98.3584C98.3804 12.4524 98.751 11.3075 99.4703 10.3168C100.189 9.32599 101.158 8.55173 102.377 7.99396C103.602 7.42886 104.986 7.14631 106.527 7.14631C108.083 7.14631 109.444 7.42886 110.611 7.99396C111.778 8.55907 112.684 9.32232 113.33 10.2837C113.983 11.2378 114.306 12.3093 114.299 13.4982C114.306 14.7605 113.913 15.8137 113.121 16.6577C112.336 17.5017 111.312 18.0374 110.049 18.2649V18.4411C111.708 18.6539 112.97 19.23 113.836 20.1694C114.71 21.1014 115.143 22.2683 115.135 23.6701C115.143 24.9544 114.772 26.0956 114.024 27.0938C113.282 28.0919 112.258 28.8771 110.952 29.4496C109.646 30.022 108.149 30.3082 106.461 30.3082Z" fill="white"/>
<path d="M2.625 43.2045L3.95739 40.1818H4.5142L2.86364 44H2.38636L0.765625 40.1818H1.3125L2.625 43.2045ZM1.12358 40.1818V44H0.536932V40.1818H1.12358ZM4.12642 44V40.1818H4.71307V44H4.12642ZM7.47807 44.0795C7.13337 44.0795 6.83093 43.9975 6.57075 43.8335C6.31223 43.6694 6.11005 43.4399 5.96422 43.1449C5.82004 42.8499 5.74795 42.5052 5.74795 42.1108C5.74795 41.7131 5.82004 41.3659 5.96422 41.0692C6.11005 40.7726 6.31223 40.5423 6.57075 40.3782C6.83093 40.2141 7.13337 40.1321 7.47807 40.1321C7.82277 40.1321 8.12437 40.2141 8.3829 40.3782C8.64308 40.5423 8.84526 40.7726 8.98943 41.0692C9.13527 41.3659 9.20818 41.7131 9.20818 42.1108C9.20818 42.5052 9.13527 42.8499 8.98943 43.1449C8.84526 43.4399 8.64308 43.6694 8.3829 43.8335C8.12437 43.9975 7.82277 44.0795 7.47807 44.0795ZM7.47807 43.5526C7.73991 43.5526 7.95534 43.4854 8.12437 43.3512C8.29341 43.217 8.41853 43.0405 8.49973 42.8217C8.58093 42.603 8.62153 42.366 8.62153 42.1108C8.62153 41.8556 8.58093 41.6178 8.49973 41.3974C8.41853 41.177 8.29341 40.9988 8.12437 40.8629C7.95534 40.727 7.73991 40.6591 7.47807 40.6591C7.21623 40.6591 7.0008 40.727 6.83176 40.8629C6.66273 40.9988 6.53761 41.177 6.45641 41.3974C6.3752 41.6178 6.3346 41.8556 6.3346 42.1108C6.3346 42.366 6.3752 42.603 6.45641 42.8217C6.53761 43.0405 6.66273 43.217 6.83176 43.3512C7.0008 43.4854 7.21623 43.5526 7.47807 43.5526ZM12.7991 41.8224V42.3693H10.6911V41.8224H12.7991ZM10.8303 40.1818V44H10.2437V40.1818H10.8303ZM13.2465 40.1818V44H12.6599V40.1818H13.2465ZM15.0446 43.1349L16.884 40.1818H17.5602V44H16.9735V41.0469L15.144 44H14.4579V40.1818H15.0446V43.1349ZM18.2551 40.7287V40.1818H21.3574V40.7287H20.1046V44H19.5179V40.7287H18.2551ZM23.706 44.0795C23.3613 44.0795 23.0589 43.9975 22.7987 43.8335C22.5402 43.6694 22.338 43.4399 22.1922 43.1449C22.048 42.8499 21.9759 42.5052 21.9759 42.1108C21.9759 41.7131 22.048 41.3659 22.1922 41.0692C22.338 40.7726 22.5402 40.5423 22.7987 40.3782C23.0589 40.2141 23.3613 40.1321 23.706 40.1321C24.0507 40.1321 24.3523 40.2141 24.6109 40.3782C24.871 40.5423 25.0732 40.7726 25.2174 41.0692C25.3632 41.3659 25.4362 41.7131 25.4362 42.1108C25.4362 42.5052 25.3632 42.8499 25.2174 43.1449C25.0732 43.4399 24.871 43.6694 24.6109 43.8335C24.3523 43.9975 24.0507 44.0795 23.706 44.0795ZM23.706 43.5526C23.9679 43.5526 24.1833 43.4854 24.3523 43.3512C24.5214 43.217 24.6465 43.0405 24.7277 42.8217C24.8089 42.603 24.8495 42.366 24.8495 42.1108C24.8495 41.8556 24.8089 41.6178 24.7277 41.3974C24.6465 41.177 24.5214 40.9988 24.3523 40.8629C24.1833 40.727 23.9679 40.6591 23.706 40.6591C23.4442 40.6591 23.2288 40.727 23.0597 40.8629C22.8907 40.9988 22.7656 41.177 22.6844 41.3974C22.6032 41.6178 22.5626 41.8556 22.5626 42.1108C22.5626 42.366 22.6032 42.603 22.6844 42.8217C22.7656 43.0405 22.8907 43.217 23.0597 43.3512C23.2288 43.4854 23.4442 43.5526 23.706 43.5526ZM26.4717 45.4318V40.1818H27.0384V40.7884H27.108C27.1511 40.7221 27.2108 40.6375 27.287 40.5348C27.3649 40.4304 27.4759 40.3376 27.6201 40.2564C27.7659 40.1735 27.9631 40.1321 28.2117 40.1321C28.5332 40.1321 28.8166 40.2125 29.0619 40.3732C29.3071 40.534 29.4985 40.7618 29.6361 41.0568C29.7736 41.3518 29.8424 41.6998 29.8424 42.1009C29.8424 42.5052 29.7736 42.8557 29.6361 43.1523C29.4985 43.4473 29.308 43.676 29.0643 43.8384C28.8207 43.9992 28.5398 44.0795 28.2217 44.0795C27.9764 44.0795 27.78 44.0389 27.6325 43.9577C27.485 43.8749 27.3715 43.7812 27.292 43.6768C27.2124 43.5708 27.1511 43.483 27.108 43.4134H27.0583V45.4318H26.4717ZM27.0484 42.0909C27.0484 42.3793 27.0906 42.6336 27.1751 42.854C27.2597 43.0728 27.3831 43.2443 27.5455 43.3686C27.7079 43.4912 27.9068 43.5526 28.1421 43.5526C28.3874 43.5526 28.592 43.4879 28.7561 43.3587C28.9218 43.2277 29.0461 43.0521 29.129 42.8317C29.2135 42.6096 29.2557 42.3627 29.2557 42.0909C29.2557 41.8224 29.2143 41.5805 29.1315 41.3651C29.0503 41.148 28.9268 40.9764 28.7611 40.8505C28.597 40.7229 28.3907 40.6591 28.1421 40.6591C27.9035 40.6591 27.703 40.7196 27.5406 40.8406C27.3781 40.9599 27.2555 41.1272 27.1727 41.3427C27.0898 41.5565 27.0484 41.8059 27.0484 42.0909ZM31.4639 43.1349L33.3034 40.1818H33.9796V44H33.3929V41.0469L31.5634 44H30.8773V40.1818H31.4639V43.1349ZM37.7494 41.8224V42.3693H35.6415V41.8224H37.7494ZM35.7807 40.1818V44H35.194V40.1818H35.7807ZM38.1969 40.1818V44H37.6102V40.1818H38.1969ZM41.7648 40.1818V40.7287H39.9949V44H39.4083V40.1818H41.7648ZM44.4622 45.0938V43.4531H44.7804C44.8583 43.3719 44.9254 43.2841 44.9818 43.1896C45.0381 43.0952 45.087 42.9833 45.1284 42.854C45.1715 42.7231 45.208 42.564 45.2378 42.3768C45.2676 42.1879 45.2941 41.96 45.3173 41.6932L45.4466 40.1818H47.8727V43.4531H48.4594V45.0938H47.8727V44H45.0489V45.0938H44.4622ZM45.4466 43.4531H47.2861V40.7287H45.9935L45.894 41.6932C45.8526 42.0926 45.8012 42.4414 45.7399 42.7397C45.6786 43.038 45.5808 43.2758 45.4466 43.4531ZM50.9292 44.0795C50.5845 44.0795 50.2821 43.9975 50.0219 43.8335C49.7634 43.6694 49.5612 43.4399 49.4154 43.1449C49.2712 42.8499 49.1991 42.5052 49.1991 42.1108C49.1991 41.7131 49.2712 41.3659 49.4154 41.0692C49.5612 40.7726 49.7634 40.5423 50.0219 40.3782C50.2821 40.2141 50.5845 40.1321 50.9292 40.1321C51.2739 40.1321 51.5755 40.2141 51.834 40.3782C52.0942 40.5423 52.2964 40.7726 52.4406 41.0692C52.5864 41.3659 52.6593 41.7131 52.6593 42.1108C52.6593 42.5052 52.5864 42.8499 52.4406 43.1449C52.2964 43.4399 52.0942 43.6694 51.834 43.8335C51.5755 43.9975 51.2739 44.0795 50.9292 44.0795ZM50.9292 43.5526C51.191 43.5526 51.4065 43.4854 51.5755 43.3512C51.7445 43.217 51.8697 43.0405 51.9509 42.8217C52.0321 42.603 52.0727 42.366 52.0727 42.1108C52.0727 41.8556 52.0321 41.6178 51.9509 41.3974C51.8697 41.177 51.7445 40.9988 51.5755 40.8629C51.4065 40.727 51.191 40.6591 50.9292 40.6591C50.6674 40.6591 50.4519 40.727 50.2829 40.8629C50.1139 40.9988 49.9887 41.177 49.9075 41.3974C49.8263 41.6178 49.7857 41.8556 49.7857 42.1108C49.7857 42.366 49.8263 42.603 49.9075 42.8217C49.9887 43.0405 50.1139 43.217 50.2829 43.3512C50.4519 43.4854 50.6674 43.5526 50.9292 43.5526ZM55.246 44.0795C54.888 44.0795 54.5798 43.995 54.3212 43.826C54.0627 43.657 53.8639 43.4241 53.7247 43.1275C53.5854 42.8308 53.5158 42.492 53.5158 42.1108C53.5158 41.723 53.5871 41.3808 53.7296 41.0842C53.8738 40.7859 54.0743 40.553 54.3312 40.3857C54.5897 40.2166 54.8913 40.1321 55.236 40.1321C55.5045 40.1321 55.7464 40.1818 55.9619 40.2812C56.1773 40.3807 56.3538 40.5199 56.4913 40.6989C56.6289 40.8778 56.7142 41.0866 56.7474 41.3253H56.1607C56.116 41.1513 56.0166 40.9972 55.8624 40.8629C55.71 40.727 55.5045 40.6591 55.246 40.6591C55.0173 40.6591 54.8167 40.7187 54.6444 40.8381C54.4737 40.9557 54.3403 41.1223 54.2442 41.3377C54.1497 41.5515 54.1025 41.8026 54.1025 42.0909C54.1025 42.3859 54.1489 42.6428 54.2417 42.8615C54.3362 43.0803 54.4687 43.2501 54.6394 43.3711C54.8118 43.4921 55.014 43.5526 55.246 43.5526C55.3984 43.5526 55.5368 43.526 55.6611 43.473C55.7854 43.42 55.8906 43.3438 55.9768 43.2443C56.063 43.1449 56.1243 43.0256 56.1607 42.8864H56.7474C56.7142 43.1117 56.6322 43.3147 56.5013 43.4954C56.372 43.6744 56.2005 43.8169 55.9867 43.9229C55.7746 44.0273 55.5277 44.0795 55.246 44.0795ZM57.4442 40.7287V40.1818H60.5465V40.7287H59.2936V44H58.707V40.7287H57.4442ZM61.92 45.4318C61.8206 45.4318 61.732 45.4235 61.6541 45.407C61.5762 45.392 61.5223 45.3771 61.4925 45.3622L61.6416 44.8452C61.7842 44.8816 61.9101 44.8949 62.0195 44.8849C62.1289 44.875 62.2258 44.8261 62.3103 44.7383C62.3965 44.6521 62.4752 44.5121 62.5465 44.3182L62.6558 44.0199L61.2439 40.1818H61.8803L62.9342 43.2244H62.974L64.028 40.1818H64.6644L63.0436 44.5568C62.9707 44.754 62.8804 44.9173 62.7727 45.0465C62.665 45.1774 62.5398 45.2744 62.3973 45.3374C62.2565 45.4003 62.0974 45.4318 61.92 45.4318ZM65.5787 44V40.1818H68.5815V44H67.9949V40.7287H66.1653V44H65.5787ZM72.3483 41.8224V42.3693H70.2403V41.8224H72.3483ZM70.3796 40.1818V44H69.7929V40.1818H70.3796ZM72.7957 40.1818V44H72.2091V40.1818H72.7957ZM75.5583 44.0795C75.2136 44.0795 74.9111 43.9975 74.6509 43.8335C74.3924 43.6694 74.1902 43.4399 74.0444 43.1449C73.9002 42.8499 73.8281 42.5052 73.8281 42.1108C73.8281 41.7131 73.9002 41.3659 74.0444 41.0692C74.1902 40.7726 74.3924 40.5423 74.6509 40.3782C74.9111 40.2141 75.2136 40.1321 75.5583 40.1321C75.903 40.1321 76.2046 40.2141 76.4631 40.3782C76.7233 40.5423 76.9254 40.7726 77.0696 41.0692C77.2155 41.3659 77.2884 41.7131 77.2884 42.1108C77.2884 42.5052 77.2155 42.8499 77.0696 43.1449C76.9254 43.4399 76.7233 43.6694 76.4631 43.8335C76.2046 43.9975 75.903 44.0795 75.5583 44.0795ZM75.5583 43.5526C75.8201 43.5526 76.0355 43.4854 76.2046 43.3512C76.3736 43.217 76.4987 43.0405 76.5799 42.8217C76.6611 42.603 76.7017 42.366 76.7017 42.1108C76.7017 41.8556 76.6611 41.6178 76.5799 41.3974C76.4987 41.177 76.3736 40.9988 76.2046 40.8629C76.0355 40.727 75.8201 40.6591 75.5583 40.6591C75.2964 40.6591 75.081 40.727 74.912 40.8629C74.7429 40.9988 74.6178 41.177 74.5366 41.3974C74.4554 41.6178 74.4148 41.8556 74.4148 42.1108C74.4148 42.366 74.4554 42.603 74.5366 42.8217C74.6178 43.0405 74.7429 43.217 74.912 43.3512C75.081 43.4854 75.2964 43.5526 75.5583 43.5526ZM79.875 44.0795C79.5171 44.0795 79.2088 43.995 78.9503 43.826C78.6918 43.657 78.4929 43.4241 78.3537 43.1275C78.2145 42.8308 78.1449 42.492 78.1449 42.1108C78.1449 41.723 78.2162 41.3808 78.3587 41.0842C78.5029 40.7859 78.7034 40.553 78.9603 40.3857C79.2188 40.2166 79.5204 40.1321 79.8651 40.1321C80.1335 40.1321 80.3755 40.1818 80.5909 40.2812C80.8064 40.3807 80.9829 40.5199 81.1204 40.6989C81.258 40.8778 81.3433 41.0866 81.3764 41.3253H80.7898C80.7451 41.1513 80.6456 40.9972 80.4915 40.8629C80.339 40.727 80.1335 40.6591 79.875 40.6591C79.6463 40.6591 79.4458 40.7187 79.2735 40.8381C79.1028 40.9557 78.9694 41.1223 78.8732 41.3377C78.7788 41.5515 78.7316 41.8026 78.7316 42.0909C78.7316 42.3859 78.778 42.6428 78.8708 42.8615C78.9652 43.0803 79.0978 43.2501 79.2685 43.3711C79.4408 43.4921 79.643 43.5526 79.875 43.5526C80.0275 43.5526 80.1659 43.526 80.2902 43.473C80.4144 43.42 80.5197 43.3438 80.6058 43.2443C80.692 43.1449 80.7533 43.0256 80.7898 42.8864H81.3764C81.3433 43.1117 81.2613 43.3147 81.1304 43.4954C81.0011 43.6744 80.8296 43.8169 80.6158 43.9229C80.4037 44.0273 80.1567 44.0795 79.875 44.0795ZM82.0733 40.7287V40.1818H85.1755V40.7287H83.9227V44H83.336V40.7287H82.0733ZM86.7579 43.1349L88.5974 40.1818H89.2735V44H88.6869V41.0469L86.8573 44H86.1713V40.1818H86.7579V43.1349ZM94.1479 44.0795C93.79 44.0795 93.4817 43.995 93.2232 43.826C92.9647 43.657 92.7658 43.4241 92.6266 43.1275C92.4874 42.8308 92.4178 42.492 92.4178 42.1108C92.4178 41.723 92.4891 41.3808 92.6316 41.0842C92.7758 40.7859 92.9763 40.553 93.2331 40.3857C93.4917 40.2166 93.7933 40.1321 94.138 40.1321C94.4064 40.1321 94.6484 40.1818 94.8638 40.2812C95.0793 40.3807 95.2557 40.5199 95.3933 40.6989C95.5308 40.8778 95.6162 41.0866 95.6493 41.3253H95.0627C95.0179 41.1513 94.9185 40.9972 94.7644 40.8629C94.6119 40.727 94.4064 40.6591 94.1479 40.6591C93.9192 40.6591 93.7187 40.7187 93.5464 40.8381C93.3757 40.9557 93.2423 41.1223 93.1461 41.3377C93.0517 41.5515 93.0044 41.8026 93.0044 42.0909C93.0044 42.3859 93.0508 42.6428 93.1437 42.8615C93.2381 43.0803 93.3707 43.2501 93.5414 43.3711C93.7137 43.4921 93.9159 43.5526 94.1479 43.5526C94.3004 43.5526 94.4388 43.526 94.563 43.473C94.6873 43.42 94.7926 43.3438 94.8787 43.2443C94.9649 43.1449 95.0262 43.0256 95.0627 42.8864H95.6493C95.6162 43.1117 95.5342 43.3147 95.4032 43.4954C95.274 43.6744 95.1025 43.8169 94.8887 43.9229C94.6766 44.0273 94.4296 44.0795 94.1479 44.0795ZM97.7705 44.0895C97.5286 44.0895 97.309 44.0439 97.1118 43.9528C96.9146 43.86 96.758 43.7266 96.642 43.5526C96.526 43.3769 96.468 43.1648 96.468 42.9162C96.468 42.6974 96.511 42.5201 96.5972 42.3842C96.6834 42.2467 96.7986 42.139 96.9427 42.0611C97.0869 41.9832 97.246 41.9252 97.42 41.8871C97.5957 41.8473 97.7722 41.8158 97.9495 41.7926C98.1815 41.7628 98.3696 41.7404 98.5138 41.7255C98.6596 41.7089 98.7657 41.6816 98.8319 41.6435C98.8999 41.6054 98.9339 41.5391 98.9339 41.4446V41.4247C98.9339 41.1795 98.8667 40.9889 98.7325 40.853C98.5999 40.7171 98.3986 40.6491 98.1285 40.6491C97.8484 40.6491 97.6288 40.7105 97.4697 40.8331C97.3106 40.9557 97.1988 41.0866 97.1341 41.2259L96.5773 41.027C96.6768 40.795 96.8093 40.6143 96.9751 40.4851C97.1424 40.3542 97.3247 40.263 97.5219 40.2116C97.7208 40.1586 97.9163 40.1321 98.1086 40.1321C98.2312 40.1321 98.3721 40.147 98.5312 40.1768C98.6919 40.205 98.8469 40.2638 98.996 40.3533C99.1468 40.4428 99.2719 40.5779 99.3714 40.7585C99.4708 40.9392 99.5205 41.1811 99.5205 41.4844V44H98.9339V43.483H98.904C98.8643 43.5658 98.798 43.6545 98.7052 43.7489C98.6124 43.8434 98.4889 43.9238 98.3348 43.9901C98.1807 44.0563 97.9926 44.0895 97.7705 44.0895ZM97.86 43.5625C98.092 43.5625 98.2876 43.5169 98.4466 43.4258C98.6074 43.3346 98.7284 43.217 98.8096 43.0728C98.8924 42.9286 98.9339 42.777 98.9339 42.6179V42.081C98.909 42.1108 98.8543 42.1381 98.7698 42.163C98.6869 42.1862 98.5908 42.2069 98.4814 42.2251C98.3737 42.2417 98.2685 42.2566 98.1658 42.2699C98.0647 42.2815 97.9826 42.2914 97.9197 42.2997C97.7672 42.3196 97.6247 42.3519 97.4921 42.3967C97.3612 42.4397 97.2551 42.5052 97.1739 42.593C97.0944 42.6792 97.0546 42.7969 97.0546 42.946C97.0546 43.1499 97.13 43.304 97.2808 43.4084C97.4333 43.5111 97.6263 43.5625 97.86 43.5625ZM101.318 43.1349L103.157 40.1818H103.834V44H103.247V41.0469L101.417 44H100.731V40.1818H101.318V43.1349ZM102.77 38.9091H103.316C103.316 39.1776 103.224 39.3971 103.038 39.5678C102.852 39.7385 102.601 39.8239 102.282 39.8239C101.969 39.8239 101.72 39.7385 101.534 39.5678C101.35 39.3971 101.258 39.1776 101.258 38.9091H101.805C101.805 39.0384 101.841 39.1519 101.912 39.2496C101.985 39.3474 102.108 39.3963 102.282 39.3963C102.456 39.3963 102.581 39.3474 102.655 39.2496C102.732 39.1519 102.77 39.0384 102.77 38.9091ZM104.528 40.7287V40.1818H107.631V40.7287H106.378V44H105.791V40.7287H104.528ZM109.979 44.0795C109.635 44.0795 109.332 43.9975 109.072 43.8335C108.814 43.6694 108.611 43.4399 108.466 43.1449C108.321 42.8499 108.249 42.5052 108.249 42.1108C108.249 41.7131 108.321 41.3659 108.466 41.0692C108.611 40.7726 108.814 40.5423 109.072 40.3782C109.332 40.2141 109.635 40.1321 109.979 40.1321C110.324 40.1321 110.626 40.2141 110.884 40.3782C111.144 40.5423 111.347 40.7726 111.491 41.0692C111.637 41.3659 111.71 41.7131 111.71 42.1108C111.71 42.5052 111.637 42.8499 111.491 43.1449C111.347 43.4399 111.144 43.6694 110.884 43.8335C110.626 43.9975 110.324 44.0795 109.979 44.0795ZM109.979 43.5526C110.241 43.5526 110.457 43.4854 110.626 43.3512C110.795 43.217 110.92 43.0405 111.001 42.8217C111.082 42.603 111.123 42.366 111.123 42.1108C111.123 41.8556 111.082 41.6178 111.001 41.3974C110.92 41.177 110.795 40.9988 110.626 40.8629C110.457 40.727 110.241 40.6591 109.979 40.6591C109.718 40.6591 109.502 40.727 109.333 40.8629C109.164 40.9988 109.039 41.177 108.958 41.3974C108.877 41.6178 108.836 41.8556 108.836 42.1108C108.836 42.366 108.877 42.603 108.958 42.8217C109.039 43.0405 109.164 43.217 109.333 43.3512C109.502 43.4854 109.718 43.5526 109.979 43.5526ZM112.745 44V40.1818H114.306C114.717 40.1818 115.044 40.2746 115.285 40.4602C115.527 40.6458 115.648 40.8911 115.648 41.196C115.648 41.428 115.58 41.6078 115.442 41.7354C115.305 41.8614 115.128 41.9467 114.913 41.9915C115.053 42.0114 115.19 42.0611 115.323 42.1406C115.457 42.2202 115.568 42.3295 115.656 42.4688C115.744 42.6063 115.788 42.7753 115.788 42.9759C115.788 43.1714 115.738 43.3462 115.638 43.5004C115.539 43.6545 115.397 43.7763 115.211 43.8658C115.025 43.9553 114.803 44 114.545 44H112.745ZM113.302 43.4631H114.545C114.747 43.4631 114.905 43.415 115.02 43.3189C115.134 43.2228 115.191 43.0919 115.191 42.9261C115.191 42.7289 115.134 42.574 115.02 42.4613C114.905 42.3469 114.747 42.2898 114.545 42.2898H113.302V43.4631ZM113.302 41.7827H114.306C114.464 41.7827 114.599 41.7611 114.711 41.718C114.824 41.6733 114.91 41.6103 114.97 41.5291C115.031 41.4463 115.062 41.3485 115.062 41.2358C115.062 41.075 114.995 40.9491 114.86 40.858C114.726 40.7652 114.541 40.7188 114.306 40.7188H113.302V41.7827Z" fill="white"/>
</svg>
